<mxfile host="app.diagrams.net" modified="2023-07-25T10:58:09.420Z" agent="Mozilla/5.0 (Windows NT 10.0; Win64; x64) AppleWebKit/537.36 (KHTML, like Gecko) Chrome/115.0.0.0 Safari/537.36" etag="rX_L6Ugw6at6EveAQDwt" version="21.6.5" type="google">
  <diagram name="Page-1" id="oB2fiIxa4wzl04C5jCTA">
    <mxGraphModel grid="1" page="1" gridSize="10" guides="1" tooltips="1" connect="1" arrows="1" fold="1" pageScale="1" pageWidth="827" pageHeight="1169" math="0" shadow="0">
      <root>
        <mxCell id="0" />
        <mxCell id="1" parent="0" />
        <mxCell id="4J0Gwaq91IEMUnegEuM5-2" value="&lt;b style=&quot;border-color: var(--border-color); font-size: 14px;&quot;&gt;Person&lt;/b&gt;" style="swimlane;fontStyle=1;align=center;verticalAlign=top;childLayout=stackLayout;horizontal=1;startSize=26;horizontalStack=0;resizeParent=1;resizeParentMax=0;resizeLast=0;collapsible=1;marginBottom=0;whiteSpace=wrap;html=1;fontFamily=Times New Roman;fillColor=#dae8fc;strokeColor=#6c8ebf;fontSize=14;" vertex="1" parent="1">
          <mxGeometry x="190" y="118" width="170" height="150" as="geometry" />
        </mxCell>
        <mxCell id="4J0Gwaq91IEMUnegEuM5-3" value="&lt;p style=&quot;border-color: var(--border-color); margin: 0px 0px 0px 4px; font-size: 14px;&quot;&gt;- name : String&lt;/p&gt;&lt;div style=&quot;font-size: 14px;&quot;&gt;&amp;nbsp;- age : int&lt;br style=&quot;font-size: 14px;&quot;&gt;&lt;/div&gt;&lt;div style=&quot;font-size: 14px;&quot;&gt;&lt;br style=&quot;font-size: 14px;&quot;&gt;&lt;/div&gt;" style="text;fillColor=#dae8fc;align=left;verticalAlign=top;spacingLeft=4;spacingRight=4;overflow=hidden;rotatable=0;points=[[0,0.5],[1,0.5]];portConstraint=eastwest;whiteSpace=wrap;html=1;fontFamily=Times New Roman;strokeColor=#6c8ebf;fontSize=14;" vertex="1" parent="4J0Gwaq91IEMUnegEuM5-2">
          <mxGeometry y="26" width="170" height="44" as="geometry" />
        </mxCell>
        <mxCell id="4J0Gwaq91IEMUnegEuM5-4" value="" style="line;strokeWidth=1;fillColor=#dae8fc;align=left;verticalAlign=middle;spacingTop=-1;spacingLeft=3;spacingRight=3;rotatable=0;labelPosition=right;points=[];portConstraint=eastwest;fontFamily=Times New Roman;strokeColor=#6c8ebf;fontSize=14;" vertex="1" parent="4J0Gwaq91IEMUnegEuM5-2">
          <mxGeometry y="70" width="170" height="8" as="geometry" />
        </mxCell>
        <mxCell id="4J0Gwaq91IEMUnegEuM5-5" value="&lt;p style=&quot;border-color: var(--border-color); margin: 0px 0px 0px 4px; font-size: 14px;&quot;&gt;+ getName() : String&lt;/p&gt;&lt;p style=&quot;border-color: var(--border-color); margin: 0px 0px 0px 4px; font-size: 14px;&quot;&gt;+ setName(String) : void&lt;/p&gt;&lt;p style=&quot;border-color: var(--border-color); margin: 0px 0px 0px 4px; font-size: 14px;&quot;&gt;+ getAge() : int&lt;/p&gt;&lt;p style=&quot;border-color: var(--border-color); margin: 0px 0px 0px 4px; font-size: 14px;&quot;&gt;+ setAge() : void&lt;/p&gt;" style="text;fillColor=#dae8fc;align=left;verticalAlign=top;spacingLeft=4;spacingRight=4;overflow=hidden;rotatable=0;points=[[0,0.5],[1,0.5]];portConstraint=eastwest;whiteSpace=wrap;html=1;fontFamily=Times New Roman;strokeColor=#6c8ebf;fontSize=14;" vertex="1" parent="4J0Gwaq91IEMUnegEuM5-2">
          <mxGeometry y="78" width="170" height="72" as="geometry" />
        </mxCell>
        <mxCell id="4J0Gwaq91IEMUnegEuM5-6" value="Student" style="swimlane;fontStyle=1;align=center;verticalAlign=top;childLayout=stackLayout;horizontal=1;startSize=26;horizontalStack=0;resizeParent=1;resizeParentMax=0;resizeLast=0;collapsible=1;marginBottom=0;whiteSpace=wrap;html=1;fontFamily=Times New Roman;fillColor=#dae8fc;strokeColor=#6c8ebf;fontSize=14;" vertex="1" parent="1">
          <mxGeometry x="40" y="358" width="160" height="110" as="geometry" />
        </mxCell>
        <mxCell id="4J0Gwaq91IEMUnegEuM5-7" value="- rollNo : int" style="text;fillColor=#dae8fc;align=left;verticalAlign=top;spacingLeft=4;spacingRight=4;overflow=hidden;rotatable=0;points=[[0,0.5],[1,0.5]];portConstraint=eastwest;whiteSpace=wrap;html=1;fontFamily=Times New Roman;strokeColor=#6c8ebf;fontSize=14;" vertex="1" parent="4J0Gwaq91IEMUnegEuM5-6">
          <mxGeometry y="26" width="160" height="26" as="geometry" />
        </mxCell>
        <mxCell id="4J0Gwaq91IEMUnegEuM5-8" value="" style="line;strokeWidth=1;fillColor=#dae8fc;align=left;verticalAlign=middle;spacingTop=-1;spacingLeft=3;spacingRight=3;rotatable=0;labelPosition=right;points=[];portConstraint=eastwest;fontFamily=Times New Roman;strokeColor=#6c8ebf;fontSize=14;" vertex="1" parent="4J0Gwaq91IEMUnegEuM5-6">
          <mxGeometry y="52" width="160" height="8" as="geometry" />
        </mxCell>
        <mxCell id="4J0Gwaq91IEMUnegEuM5-9" value="+ getRollNo() : int&lt;br style=&quot;font-size: 14px;&quot;&gt;+ setRollNo() : void" style="text;fillColor=#dae8fc;align=left;verticalAlign=top;spacingLeft=4;spacingRight=4;overflow=hidden;rotatable=0;points=[[0,0.5],[1,0.5]];portConstraint=eastwest;whiteSpace=wrap;html=1;fontFamily=Times New Roman;strokeColor=#6c8ebf;fontSize=14;" vertex="1" parent="4J0Gwaq91IEMUnegEuM5-6">
          <mxGeometry y="60" width="160" height="50" as="geometry" />
        </mxCell>
        <mxCell id="4J0Gwaq91IEMUnegEuM5-10" value="Teacher" style="swimlane;fontStyle=1;align=center;verticalAlign=top;childLayout=stackLayout;horizontal=1;startSize=26;horizontalStack=0;resizeParent=1;resizeParentMax=0;resizeLast=0;collapsible=1;marginBottom=0;whiteSpace=wrap;html=1;fontFamily=Times New Roman;fillColor=#dae8fc;strokeColor=#6c8ebf;fontSize=14;" vertex="1" parent="1">
          <mxGeometry x="320" y="358" width="160" height="110" as="geometry" />
        </mxCell>
        <mxCell id="4J0Gwaq91IEMUnegEuM5-11" value="- empId : int" style="text;fillColor=#dae8fc;align=left;verticalAlign=top;spacingLeft=4;spacingRight=4;overflow=hidden;rotatable=0;points=[[0,0.5],[1,0.5]];portConstraint=eastwest;whiteSpace=wrap;html=1;fontFamily=Times New Roman;strokeColor=#6c8ebf;fontSize=14;" vertex="1" parent="4J0Gwaq91IEMUnegEuM5-10">
          <mxGeometry y="26" width="160" height="26" as="geometry" />
        </mxCell>
        <mxCell id="4J0Gwaq91IEMUnegEuM5-12" value="" style="line;strokeWidth=1;fillColor=#dae8fc;align=left;verticalAlign=middle;spacingTop=-1;spacingLeft=3;spacingRight=3;rotatable=0;labelPosition=right;points=[];portConstraint=eastwest;fontFamily=Times New Roman;strokeColor=#6c8ebf;fontSize=14;" vertex="1" parent="4J0Gwaq91IEMUnegEuM5-10">
          <mxGeometry y="52" width="160" height="8" as="geometry" />
        </mxCell>
        <mxCell id="4J0Gwaq91IEMUnegEuM5-13" value="+ getEmpId() : int&amp;nbsp;&lt;br style=&quot;font-size: 14px;&quot;&gt;+ setEmpId() : void" style="text;fillColor=#dae8fc;align=left;verticalAlign=top;spacingLeft=4;spacingRight=4;overflow=hidden;rotatable=0;points=[[0,0.5],[1,0.5]];portConstraint=eastwest;whiteSpace=wrap;html=1;fontFamily=Times New Roman;strokeColor=#6c8ebf;fontSize=14;" vertex="1" parent="4J0Gwaq91IEMUnegEuM5-10">
          <mxGeometry y="60" width="160" height="50" as="geometry" />
        </mxCell>
        <mxCell id="4J0Gwaq91IEMUnegEuM5-22" value="Extends" style="endArrow=block;endSize=16;endFill=0;html=1;rounded=0;entryX=0.547;entryY=1;entryDx=0;entryDy=0;entryPerimeter=0;exitX=0.5;exitY=0;exitDx=0;exitDy=0;fontFamily=Times New Roman;fillColor=#dae8fc;strokeColor=#6c8ebf;fontSize=14;" edge="1" parent="1" source="4J0Gwaq91IEMUnegEuM5-6" target="4J0Gwaq91IEMUnegEuM5-5">
          <mxGeometry width="160" relative="1" as="geometry">
            <mxPoint x="360" y="348" as="sourcePoint" />
            <mxPoint x="520" y="348" as="targetPoint" />
          </mxGeometry>
        </mxCell>
        <mxCell id="4J0Gwaq91IEMUnegEuM5-23" value="Extends" style="endArrow=block;endSize=16;endFill=0;html=1;rounded=0;exitX=0.575;exitY=0.004;exitDx=0;exitDy=0;entryX=0.636;entryY=1.033;entryDx=0;entryDy=0;entryPerimeter=0;exitPerimeter=0;fontFamily=Times New Roman;fillColor=#dae8fc;strokeColor=#6c8ebf;fontSize=14;" edge="1" parent="1" source="4J0Gwaq91IEMUnegEuM5-10" target="4J0Gwaq91IEMUnegEuM5-5">
          <mxGeometry width="160" relative="1" as="geometry">
            <mxPoint x="545.94" y="353.97" as="sourcePoint" />
            <mxPoint x="429.99999999999994" y="268.00200000000007" as="targetPoint" />
          </mxGeometry>
        </mxCell>
        <mxCell id="4J0Gwaq91IEMUnegEuM5-24" value="Address" style="swimlane;fontStyle=1;align=center;verticalAlign=top;childLayout=stackLayout;horizontal=1;startSize=26;horizontalStack=0;resizeParent=1;resizeParentMax=0;resizeLast=0;collapsible=1;marginBottom=0;whiteSpace=wrap;html=1;fontFamily=Times New Roman;fillColor=#dae8fc;strokeColor=#6c8ebf;fontSize=14;" vertex="1" parent="1">
          <mxGeometry x="560" y="118" width="170" height="150" as="geometry">
            <mxRectangle x="600" y="40" width="90" height="30" as="alternateBounds" />
          </mxGeometry>
        </mxCell>
        <mxCell id="4J0Gwaq91IEMUnegEuM5-25" value="- city : String&lt;br style=&quot;font-size: 14px;&quot;&gt;- state : String" style="text;fillColor=#dae8fc;align=left;verticalAlign=top;spacingLeft=4;spacingRight=4;overflow=hidden;rotatable=0;points=[[0,0.5],[1,0.5]];portConstraint=eastwest;whiteSpace=wrap;html=1;fontFamily=Times New Roman;strokeColor=#6c8ebf;fontSize=14;" vertex="1" parent="4J0Gwaq91IEMUnegEuM5-24">
          <mxGeometry y="26" width="170" height="44" as="geometry" />
        </mxCell>
        <mxCell id="4J0Gwaq91IEMUnegEuM5-26" value="" style="line;strokeWidth=1;fillColor=#dae8fc;align=left;verticalAlign=middle;spacingTop=-1;spacingLeft=3;spacingRight=3;rotatable=0;labelPosition=right;points=[];portConstraint=eastwest;fontFamily=Times New Roman;strokeColor=#6c8ebf;fontSize=14;" vertex="1" parent="4J0Gwaq91IEMUnegEuM5-24">
          <mxGeometry y="70" width="170" height="8" as="geometry" />
        </mxCell>
        <mxCell id="4J0Gwaq91IEMUnegEuM5-27" value="+ getCity() : String&lt;br style=&quot;font-size: 14px;&quot;&gt;+ setCity() : void&lt;br style=&quot;font-size: 14px;&quot;&gt;+ getState() :&amp;nbsp;&lt;br style=&quot;font-size: 14px;&quot;&gt;+ setState() : void" style="text;fillColor=#dae8fc;align=left;verticalAlign=top;spacingLeft=4;spacingRight=4;overflow=hidden;rotatable=0;points=[[0,0.5],[1,0.5]];portConstraint=eastwest;whiteSpace=wrap;html=1;fontFamily=Times New Roman;strokeColor=#6c8ebf;fontSize=14;" vertex="1" parent="4J0Gwaq91IEMUnegEuM5-24">
          <mxGeometry y="78" width="170" height="72" as="geometry" />
        </mxCell>
        <mxCell id="4J0Gwaq91IEMUnegEuM5-29" value="«interface»&lt;br style=&quot;font-size: 14px;&quot;&gt;&lt;b style=&quot;font-size: 14px;&quot;&gt;Salary&lt;/b&gt;" style="html=1;whiteSpace=wrap;fontFamily=Times New Roman;fillColor=#dae8fc;strokeColor=#6c8ebf;fontSize=14;" vertex="1" parent="1">
          <mxGeometry x="600" y="360" width="110" height="50" as="geometry" />
        </mxCell>
        <mxCell id="4J0Gwaq91IEMUnegEuM5-30" value="" style="endArrow=block;dashed=1;endFill=0;endSize=12;html=1;rounded=0;exitX=1;exitY=0.5;exitDx=0;exitDy=0;entryX=0;entryY=0.75;entryDx=0;entryDy=0;fontFamily=Times New Roman;fillColor=#dae8fc;strokeColor=#6c8ebf;fontSize=14;" edge="1" parent="1" source="4J0Gwaq91IEMUnegEuM5-11" target="4J0Gwaq91IEMUnegEuM5-29">
          <mxGeometry width="160" relative="1" as="geometry">
            <mxPoint x="360" y="348" as="sourcePoint" />
            <mxPoint x="520" y="348" as="targetPoint" />
          </mxGeometry>
        </mxCell>
        <mxCell id="4J0Gwaq91IEMUnegEuM5-28" value="" style="endArrow=diamondThin;endFill=0;endSize=24;html=1;rounded=0;exitX=-0.021;exitY=-0.011;exitDx=0;exitDy=0;exitPerimeter=0;entryX=0.989;entryY=0;entryDx=0;entryDy=0;entryPerimeter=0;fontFamily=Times New Roman;fillColor=#dae8fc;strokeColor=#6c8ebf;fontSize=14;" edge="1" parent="1" source="4J0Gwaq91IEMUnegEuM5-27" target="4J0Gwaq91IEMUnegEuM5-5">
          <mxGeometry width="160" relative="1" as="geometry">
            <mxPoint x="520" y="348" as="sourcePoint" />
            <mxPoint x="360" y="348" as="targetPoint" />
          </mxGeometry>
        </mxCell>
        <mxCell id="fSa1gF4wO1EMzgJkMy0O-1" value="&lt;b style=&quot;font-size: 14px;&quot;&gt;Class Diagram :&lt;/b&gt;" style="text;html=1;align=center;verticalAlign=middle;resizable=0;points=[];autosize=1;strokeColor=none;fillColor=none;fontFamily=Times New Roman;fontSize=14;" vertex="1" parent="1">
          <mxGeometry x="30" y="28" width="120" height="30" as="geometry" />
        </mxCell>
      </root>
    </mxGraphModel>
  </diagram>
</mxfile>
